<svg class="hidden">
  <symbol xmlns="http://www.w3.org/2000/svg" viewBox="0 0 14 14" id="Discount-icon">
    <mask id="mask0_501_701" maskUnits="userSpaceOnUse" x="0" y="0" width="14" height="14">
      <path fill-rule="evenodd" clip-rule="evenodd" d="M0.333984 0.333496H13.6691V13.6675H0.333984V0.333496Z" ></path>
    </mask>
    <g mask="url(#mask0_501_701)">
      <path fill-rule="evenodd" clip-rule="evenodd" d="M6.29713 12.3837C6.69047 12.7677 7.3238 12.763 7.71447 12.3704L8.1958 11.8904C8.56913 11.5177 9.08513 11.305 9.61113 11.305H10.2978C10.8538 11.305 11.3058 10.853 11.3058 10.2977V9.61169C11.3058 9.07769 11.5125 8.57569 11.8898 8.19769L12.3698 7.71703C12.5651 7.52103 12.6698 7.26703 12.6691 6.99769C12.6685 6.72903 12.5625 6.47636 12.3711 6.28569L11.8905 5.80436C11.5125 5.42369 11.3058 4.92236 11.3058 4.38836V3.70369C11.3058 3.14769 10.8538 2.69569 10.2978 2.69569H9.61247C9.07847 2.69569 8.57647 2.48836 8.19847 2.11303L7.71713 1.63103C7.31647 1.23436 6.67713 1.23636 6.2858 1.63036L5.80647 2.11103C5.4238 2.48903 4.9218 2.69569 4.3898 2.69569H3.7038C3.14847 2.69636 2.69647 3.14836 2.69647 3.70369V4.38703C2.69647 4.92103 2.48913 5.42303 2.11313 5.80169L1.6398 6.27569C1.63513 6.28103 1.63047 6.28503 1.6258 6.28969C1.23447 6.68369 1.23647 7.32303 1.63047 7.71436L2.1118 8.19569C2.48913 8.57436 2.69647 9.07636 2.69647 9.61036V10.2977C2.69647 10.853 3.1478 11.305 3.7038 11.305H4.38847C4.92313 11.3057 5.42513 11.513 5.80313 11.8897L6.2838 12.369C6.2878 12.3737 6.29247 12.3784 6.29713 12.3837V12.3837ZM6.9998 13.6677C6.48847 13.6677 5.97713 13.4744 5.5858 13.0864C5.58047 13.081 5.57513 13.0757 5.5698 13.0697L5.09647 12.597C4.9078 12.4097 4.6558 12.3057 4.3878 12.305H3.7038C2.59647 12.305 1.69647 11.4044 1.69647 10.2977V9.61036C1.69647 9.34236 1.5918 9.09103 1.4038 8.90169L0.924466 8.42303C0.145799 7.64836 0.136466 6.38703 0.901133 5.60036C0.907133 5.59436 0.913133 5.58836 0.919133 5.58236L1.40447 5.09569C1.5918 4.90703 1.69647 4.65436 1.69647 4.38703V3.70369C1.69647 2.59703 2.59647 1.69636 3.70313 1.69569H4.3898C4.65713 1.69569 4.90913 1.59103 5.10047 1.40236L5.57713 0.924359C6.35647 0.139693 7.63047 0.135693 8.41647 0.917026L8.9038 1.40436C9.09247 1.59169 9.34447 1.69569 9.61247 1.69569H10.2978C11.4051 1.69569 12.3058 2.59636 12.3058 3.70369V4.38836C12.3058 4.65569 12.4098 4.90836 12.5985 5.09836L13.0771 5.57769C13.4565 5.95436 13.6671 6.45769 13.6691 6.99436C13.6711 7.53103 13.4638 8.03569 13.0858 8.41636L12.5971 8.90369C12.4098 9.09236 12.3058 9.34369 12.3058 9.61169V10.2977C12.3058 11.4044 11.4051 12.305 10.2985 12.305H9.61113C9.34713 12.305 9.08913 12.4117 8.9018 12.5977L8.42313 13.0764C8.0318 13.4704 7.5158 13.6677 6.9998 13.6677V13.6677Z"></path>
    </g>
    <path fill-rule="evenodd" clip-rule="evenodd" d="M5.28694 9.21434C5.15894 9.21434 5.03094 9.16567 4.93361 9.06767C4.73828 8.87234 4.73828 8.55634 4.93361 8.361L8.36028 4.93367C8.55561 4.73834 8.87228 4.73834 9.06761 4.93367C9.26294 5.129 9.26294 5.44567 9.06761 5.641L5.64028 9.06767C5.54294 9.16567 5.41494 9.21434 5.28694 9.21434" ></path>
    <path fill-rule="evenodd" clip-rule="evenodd" d="M8.67 9.33284C8.30133 9.33284 8 9.03484 8 8.66618C8 8.29751 8.29533 7.99951 8.664 7.99951H8.67C9.03867 7.99951 9.33667 8.29751 9.33667 8.66618C9.33667 9.03484 9.03867 9.33284 8.67 9.33284" ></path>
    <path fill-rule="evenodd" clip-rule="evenodd" d="M5.33602 5.99947C4.96735 5.99947 4.66602 5.70147 4.66602 5.3328C4.66602 4.96414 4.96135 4.66614 5.33002 4.66614H5.33602C5.70468 4.66614 6.00268 4.96414 6.00268 5.3328C6.00268 5.70147 5.70468 5.99947 5.33602 5.99947" ></path>
  </symbol>
</svg>