<svg class="hidden">
  <symbol xmlns="http://www.w3.org/2000/svg" viewBox="0 0 16 16" id="Star-icon">
    <path fill-rule="evenodd" clip-rule="evenodd" d="M7.83393 3C7.77326 3 7.62393 3.01667 7.5446 3.17533L6.32726 5.60933C6.1346 5.994 5.76326 6.26133 5.33393 6.32267L2.6086 6.71533C2.4286 6.74133 2.36726 6.87467 2.3486 6.93067C2.33193 6.98467 2.30526 7.122 2.42926 7.24067L4.39993 9.134C4.71393 9.436 4.8566 9.87133 4.78193 10.2973L4.31793 12.9707C4.28926 13.138 4.39393 13.2353 4.4406 13.2687C4.48993 13.306 4.62193 13.38 4.78526 13.2947L7.22193 12.0313C7.60593 11.8333 8.06326 11.8333 8.44593 12.0313L10.8819 13.294C11.0459 13.3787 11.1779 13.3047 11.2279 13.2687C11.2746 13.2353 11.3793 13.138 11.3506 12.9707L10.8853 10.2973C10.8106 9.87133 10.9533 9.436 11.2673 9.134L13.2379 7.24067C13.3626 7.122 13.3359 6.984 13.3186 6.93067C13.3006 6.87467 13.2393 6.74133 13.0593 6.71533L10.3339 6.32267C9.90526 6.26133 9.53393 5.994 9.34126 5.60867L8.1226 3.17533C8.04393 3.01667 7.8946 3 7.83393 3M4.63193 14.3333C4.3566 14.3333 4.08326 14.2467 3.84926 14.076C3.44526 13.78 3.24726 13.2913 3.33326 12.7993L3.79726 10.126C3.8146 10.0267 3.7806 9.926 3.70726 9.85533L1.7366 7.962C1.37393 7.61467 1.24393 7.10133 1.39726 6.62467C1.55193 6.14267 1.96126 5.798 2.46593 5.726L5.19126 5.33333C5.2966 5.31867 5.38726 5.254 5.4326 5.162L6.6506 2.72733C6.87526 2.27867 7.3286 2 7.83393 2V2C8.33926 2 8.7926 2.27867 9.01726 2.72733L10.2359 5.16133C10.2819 5.254 10.3719 5.31867 10.4766 5.33333L13.2019 5.726C13.7066 5.798 14.1159 6.14267 14.2706 6.62467C14.4239 7.10133 14.2933 7.61467 13.9306 7.962L11.9599 9.85533C11.8866 9.926 11.8533 10.0267 11.8706 10.1253L12.3353 12.7993C12.4206 13.292 12.2226 13.7807 11.8179 14.076C11.4079 14.3767 10.8739 14.4173 10.4213 14.1813L7.98593 12.9193C7.8906 12.87 7.7766 12.87 7.68126 12.9193L5.24593 14.182C5.05126 14.2833 4.84126 14.3333 4.63193 14.3333"></path>
  </symbol>
</svg>