<svg width="29" height="29" viewBox="0 0 29 29" fill="none" xmlns="http://www.w3.org/2000/svg">
<path fill-rule="evenodd" clip-rule="evenodd" d="M7.62074 19.3372C7.40741 19.3372 7.19274 19.2692 7.01141 19.1305C6.57407 18.7932 6.49141 18.1652 6.82874 17.7279L10.8194 12.5412C10.9821 12.3292 11.2234 12.1919 11.4874 12.1585C11.7567 12.1239 12.0207 12.1985 12.2301 12.3652L15.9901 15.3185L19.2794 11.0745C19.6181 10.6359 20.2447 10.5545 20.6821 10.8959C21.1194 11.2345 21.1994 11.8625 20.8607 12.2985L16.9541 17.3385C16.7914 17.5492 16.5514 17.6865 16.2874 17.7185C16.0207 17.7545 15.7567 17.6772 15.5461 17.5132L11.7887 14.5612L8.41407 18.9465C8.21674 19.2025 7.92074 19.3372 7.62074 19.3372" fill="#5B6066"/>
<mask id="mask0_501_401" style="mask-type:alpha" maskUnits="userSpaceOnUse" x="21" y="0" width="8" height="8">
<path fill-rule="evenodd" clip-rule="evenodd" d="M21.0605 0.666801H28.1859V7.79334H21.0605V0.666801Z" fill="white"/>
</mask>
<g mask="url(#mask0_501_401)">
<path fill-rule="evenodd" clip-rule="evenodd" d="M24.6232 2.66667C23.7619 2.66667 23.0605 3.36667 23.0605 4.22934C23.0605 5.09067 23.7619 5.79334 24.6232 5.79334C25.4845 5.79334 26.1859 5.09067 26.1859 4.22934C26.1859 3.36667 25.4845 2.66667 24.6232 2.66667M24.6232 7.79334C22.6592 7.79334 21.0605 6.19467 21.0605 4.22934C21.0605 2.264 22.6592 0.666672 24.6232 0.666672C26.5885 0.666672 28.1859 2.264 28.1859 4.22934C28.1859 6.19467 26.5885 7.79334 24.6232 7.79334" fill="#5B6066"/>
</g>
<mask id="mask1_501_401" style="mask-type:alpha" maskUnits="userSpaceOnUse" x="0" y="1" width="28" height="28">
<path fill-rule="evenodd" clip-rule="evenodd" d="M0.666016 1.78947H27.1486V28.2708H0.666016V1.78947Z" fill="white"/>
</mask>
<g mask="url(#mask1_501_401)">
<path fill-rule="evenodd" clip-rule="evenodd" d="M19.6433 28.2708H8.17135C3.68202 28.2708 0.666016 25.1175 0.666016 20.4241V9.64813C0.666016 4.94813 3.68202 1.78947 8.17135 1.78947H17.862C18.414 1.78947 18.862 2.23747 18.862 2.78947C18.862 3.34147 18.414 3.78947 17.862 3.78947H8.17135C4.82735 3.78947 2.66602 6.08813 2.66602 9.64813V20.4241C2.66602 24.0308 4.77535 26.2708 8.17135 26.2708H19.6433C22.9873 26.2708 25.1487 23.9761 25.1487 20.4241V11.0388C25.1487 10.4868 25.5967 10.0388 26.1487 10.0388C26.7007 10.0388 27.1487 10.4868 27.1487 11.0388V20.4241C27.1487 25.1175 24.1327 28.2708 19.6433 28.2708" fill="#5B6066"/>
</g>
</svg>
