<svg width="14" height="13" viewBox="0 0 14 13" fill="none" xmlns="http://www.w3.org/2000/svg">
<path fill-rule="evenodd" clip-rule="evenodd" d="M12.8334 12.6265H7.99805C7.72205 12.6265 7.49805 12.4025 7.49805 12.1265C7.49805 11.8505 7.72205 11.6265 7.99805 11.6265H12.8334C13.1094 11.6265 13.3334 11.8505 13.3334 12.1265C13.3334 12.4025 13.1094 12.6265 12.8334 12.6265" fill="black"/>
<mask id="mask0_501_434" style="mask-type:alpha" maskUnits="userSpaceOnUse" x="0" y="0" width="12" height="13">
<path fill-rule="evenodd" clip-rule="evenodd" d="M0.333984 0.00012207H11.7877V12.6265H0.333984V0.00012207Z" fill="white"/>
</mask>
<g mask="url(#mask0_501_434)">
<path fill-rule="evenodd" clip-rule="evenodd" d="M7.74083 1.34455L1.46417 9.19455C1.35017 9.33722 1.30817 9.52122 1.35017 9.69788L1.80417 11.6212L3.83017 11.5959C4.02283 11.5939 4.20083 11.5079 4.31883 11.3612C6.4635 8.67788 10.5522 3.56188 10.6682 3.41188C10.7775 3.23455 10.8202 2.98388 10.7628 2.74255C10.7042 2.49522 10.5502 2.28522 10.3282 2.15122C10.2808 2.11855 9.1575 1.24655 9.12283 1.21922C8.70017 0.88055 8.0835 0.939217 7.74083 1.34455V1.34455ZM1.4095 12.6266C1.17817 12.6266 0.976834 12.4679 0.922834 12.2419L0.376834 9.92788C0.264167 9.44855 0.376167 8.95388 0.683501 8.56988L6.9635 0.715217C6.96617 0.712551 6.96817 0.709217 6.97083 0.706551C7.6595 -0.116783 8.90483 -0.238116 9.74483 0.435884C9.77817 0.461884 10.8935 1.32855 10.8935 1.32855C11.2988 1.56988 11.6155 2.00122 11.7355 2.51188C11.8548 3.01722 11.7682 3.53855 11.4902 3.97922C11.4695 4.01188 11.4515 4.03988 5.0995 11.9866C4.7935 12.3679 4.33483 12.5899 3.84217 12.5959L1.41617 12.6266H1.4095Z" fill="black"/>
</g>
<path fill-rule="evenodd" clip-rule="evenodd" d="M9.81626 5.78989C9.7096 5.78989 9.60293 5.75589 9.5116 5.68656L5.87693 2.89456C5.65826 2.72656 5.61693 2.41322 5.78493 2.19322C5.9536 1.97456 6.26693 1.93389 6.48626 2.10189L10.1216 4.89322C10.3403 5.06122 10.3816 5.37522 10.2129 5.59456C10.1149 5.72256 9.96626 5.78989 9.81626 5.78989" fill="black"/>
</svg>
