<svg width="28" height="28" viewBox="0 0 28 28" fill="none" xmlns="http://www.w3.org/2000/svg">
<path fill-rule="evenodd" clip-rule="evenodd" d="M20.102 27.8249H8.33668C3.74868 27.8249 0.666016 24.6049 0.666016 19.8129V8.7276C0.666016 3.9356 3.74868 0.715599 8.33668 0.715599H13.322C13.874 0.715599 14.322 1.1636 14.322 1.7156C14.322 2.2676 13.874 2.7156 13.322 2.7156H8.33668C4.89135 2.7156 2.66602 5.0756 2.66602 8.7276V19.8129C2.66602 23.4649 4.89135 25.8249 8.33668 25.8249H20.102C23.5473 25.8249 25.774 23.4649 25.774 19.8129V14.4423C25.774 13.8903 26.222 13.4423 26.774 13.4423C27.326 13.4423 27.774 13.8903 27.774 14.4423V19.8129C27.774 24.6049 24.69 27.8249 20.102 27.8249" fill="#5B6066"/>
<path fill-rule="evenodd" clip-rule="evenodd" d="M9.82251 18.5711H13.7918C14.2985 18.5711 14.7732 18.3751 15.1318 18.0164L25.1438 8.0044C25.5545 7.59374 25.7812 7.04707 25.7812 6.46574C25.7812 5.88307 25.5545 5.33507 25.1438 4.9244L23.5212 3.30174C22.6718 2.45507 21.2905 2.45507 20.4398 3.30174L10.4758 13.2657C10.1305 13.6111 9.93451 14.0697 9.92251 14.5564L9.82251 18.5711ZM13.7918 20.5711H8.79718C8.52785 20.5711 8.26918 20.4617 8.08118 20.2684C7.89318 20.0764 7.79051 19.8164 7.79718 19.5457L7.92251 14.5071C7.94785 13.5044 8.35185 12.5617 9.06118 11.8511H9.06251L19.0265 1.88707C20.6558 0.260402 23.3052 0.260402 24.9345 1.88707L26.5572 3.50974C27.3478 4.29907 27.7825 5.3484 27.7812 6.46574C27.7812 7.58307 27.3465 8.63107 26.5572 9.41907L16.5452 19.4311C15.8105 20.1657 14.8318 20.5711 13.7918 20.5711V20.5711Z" fill="#5B6066"/>
<path fill-rule="evenodd" clip-rule="evenodd" d="M24.3064 11.2221C24.0504 11.2221 23.7944 11.1248 23.5997 10.9288L17.5117 4.8408C17.1211 4.45013 17.1211 3.8168 17.5117 3.42613C17.9024 3.03547 18.5344 3.03547 18.9251 3.42613L25.0131 9.51547C25.4037 9.90613 25.4037 10.5381 25.0131 10.9288C24.8184 11.1248 24.5624 11.2221 24.3064 11.2221" fill="#5B6066"/>
</svg>
