<svg width="29" height="29" viewBox="0 0 29 29" fill="none" xmlns="http://www.w3.org/2000/svg">
<path fill-rule="evenodd" clip-rule="evenodd" d="M9.9773 7.40467C9.93463 7.40467 9.89197 7.41 9.8493 7.42067C5.8893 8.39534 2.66797 12.686 2.66797 16.9847C2.66797 22.3927 7.06797 26.7927 12.4773 26.7927C17.3533 26.7927 21.428 23.3193 22.1666 18.5327C22.172 18.4927 22.1906 18.3767 22.0813 18.2473C21.9773 18.126 21.812 18.054 21.6386 18.054C19.7573 18.054 18.3213 18.0967 17.2 18.1287C14.4853 18.21 13.3626 18.2407 12.2533 17.418C10.5813 16.1793 10.44 14.0513 10.44 7.79267C10.44 7.68067 10.392 7.58734 10.296 7.51267C10.2066 7.442 10.0933 7.40467 9.9773 7.40467M12.4773 28.7927C5.9653 28.7927 0.667969 23.4953 0.667969 16.9847C0.667969 11.822 4.57197 6.65933 9.37064 5.478C10.12 5.29533 10.9253 5.466 11.5306 5.938C12.108 6.39133 12.44 7.06733 12.44 7.79267C12.44 13.6393 12.6373 15.2127 13.444 15.8113C13.9733 16.202 14.6986 16.198 17.1426 16.13C18.2786 16.0967 19.7333 16.054 21.6386 16.054C22.3986 16.054 23.1146 16.3793 23.6 16.946C24.0506 17.4727 24.248 18.1607 24.144 18.838C23.2533 24.6047 18.3466 28.7927 12.4773 28.7927" fill="white"/>
<mask id="mask0_501_131" style="mask-type:alpha" maskUnits="userSpaceOnUse" x="14" y="0" width="15" height="15">
<path fill-rule="evenodd" clip-rule="evenodd" d="M14.6328 0.334H28.5247V14.0531H14.6328V0.334Z" fill="white"/>
</mask>
<g mask="url(#mask0_501_131)">
<path fill-rule="evenodd" clip-rule="evenodd" d="M16.6818 2.33573C16.5351 5.6944 16.7525 10.0331 16.8538 11.7517C16.8591 11.8544 16.9338 11.9291 17.0351 11.9344C18.4058 12.0131 23.1285 12.2317 26.5245 11.7317C26.5325 9.85973 25.2511 7.32107 23.3218 5.39307C21.3431 3.41707 19.0018 2.33573 16.7111 2.33573H16.6818ZM21.0871 14.0531C19.3405 14.0531 17.8031 13.9824 16.9191 13.9317C15.8071 13.8664 14.9218 12.9797 14.8578 11.8677C14.7538 10.1051 14.5285 5.6264 14.6885 2.1624C14.7325 1.15573 15.5458 0.354401 16.5405 0.337068C19.3898 0.254401 22.3298 1.57707 24.7351 3.9784C27.0791 6.32107 28.5671 9.39973 28.5245 11.8224C28.5085 12.7677 27.8218 13.5571 26.8938 13.6971C25.0831 13.9704 22.9631 14.0531 21.0871 14.0531V14.0531Z" fill="white"/>
</g>
</svg>
