<svg width="32" height="38" viewBox="0 0 32 38" fill="none" xmlns="http://www.w3.org/2000/svg">
<mask id="mask0_501_232" style="mask-type:alpha" maskUnits="userSpaceOnUse" x="0" y="0" width="32" height="38">
<path fill-rule="evenodd" clip-rule="evenodd" d="M0.333984 0.6674H31.4398V37.986H0.333984V0.6674Z" fill="white"/>
</mask>
<g mask="url(#mask0_501_232)">
<path fill-rule="evenodd" clip-rule="evenodd" d="M15.8869 3.41667C14.3322 3.41667 4.52391 6.87067 3.39274 7.81483C3.05908 8.15033 3.04624 8.73333 3.11774 12.6365C3.15074 14.5175 3.19658 17.0732 3.19658 20.6115C3.19658 30.1467 13.6869 34.3798 15.8851 35.159C18.0814 34.3762 28.5772 30.1192 28.5772 20.6115C28.5772 17.0695 28.6231 14.512 28.6579 12.631C28.7276 8.7315 28.7147 8.1485 28.3609 7.7965C27.2517 6.87067 17.4416 3.41667 15.8869 3.41667M15.8869 37.986C15.7531 37.986 15.6192 37.9677 15.4891 37.9273C14.8749 37.7422 0.446578 33.2285 0.446578 20.6115C0.446578 17.097 0.400744 14.5542 0.367744 12.6878C0.283411 8.02567 0.265078 7.054 1.46958 5.85133C2.90874 4.4085 13.8079 0.666667 15.8869 0.666667C17.9641 0.666667 28.8632 4.4085 30.3061 5.85133C31.5087 7.054 31.4904 8.02567 31.4061 12.6823C31.3731 14.5487 31.3272 17.0915 31.3272 20.6115C31.3272 33.2285 16.8989 37.7422 16.2847 37.9273C16.1546 37.9677 16.0207 37.986 15.8869 37.986" fill="#474A4F"/>
</g>
<path fill-rule="evenodd" clip-rule="evenodd" d="M14.5915 23.6191V23.6191C14.2267 23.6191 13.8765 23.4742 13.618 23.2157L10.1493 19.7434C9.61398 19.2062 9.61398 18.3336 10.1512 17.7982C10.6865 17.2611 11.5592 17.2611 12.0963 17.7982L14.5915 20.2971L20.7662 14.1224C21.3033 13.5852 22.1723 13.5852 22.7095 14.1224C23.2467 14.6596 23.2467 15.5304 22.7095 16.0676L15.5632 23.2157C15.3065 23.4742 14.9563 23.6191 14.5915 23.6191" fill="#474A4F"/>
</svg>
