<svg width="32" height="32" viewBox="0 0 32 32" fill="none" xmlns="http://www.w3.org/2000/svg">
<path fill-rule="evenodd" clip-rule="evenodd" d="M10.2193 4.66667C6.84602 4.66667 4.66602 6.97733 4.66602 10.5547V21.4453C4.66602 25.0227 6.84602 27.3333 10.2193 27.3333H21.7767C25.1514 27.3333 27.3327 25.0227 27.3327 21.4453V10.5547C27.3327 6.97733 25.1513 4.66667 21.778 4.66667H10.2193ZM21.7767 29.3333H10.2193C5.70068 29.3333 2.66602 26.1627 2.66602 21.4453V10.5547C2.66602 5.83733 5.70068 2.66667 10.2193 2.66667H21.778C26.2967 2.66667 29.3327 5.83733 29.3327 10.5547V21.4453C29.3327 26.1627 26.2967 29.3333 21.7767 29.3333Z" fill="#5B6066"/>
<path fill-rule="evenodd" clip-rule="evenodd" d="M14.417 20.164C14.1623 20.164 13.905 20.0667 13.7103 19.8707L10.545 16.7067C10.1543 16.316 10.1543 15.684 10.545 15.2933C10.9356 14.9027 11.5676 14.9027 11.9583 15.2933L14.417 17.7493L20.0383 12.1293C20.429 11.7387 21.061 11.7387 21.4516 12.1293C21.8423 12.52 21.8423 13.152 21.4516 13.5427L15.1236 19.8707C14.929 20.0667 14.673 20.164 14.417 20.164Z" fill="#5B6066"/>
</svg>
