<svg width="1680" height="409" viewBox="0 0 1680 409" fill="none" xmlns="http://www.w3.org/2000/svg">
<path fill-rule="evenodd" clip-rule="evenodd" d="M-383 136.934L-292.542 151.348C-202.083 166.663 -21.1667 197.293 159.75 227.022C340.667 257.652 521.583 288.282 702.5 257.652C883.417 227.022 1064.33 136.934 1245.25 83.7819C1426.17 30.63 1607.08 15.315 1697.54 8.10793L1788 0V409H1697.54C1607.08 409 1426.17 409 1245.25 409C1064.33 409 883.417 409 702.5 409C521.583 409 340.667 409 159.75 409C-21.1667 409 -202.083 409 -292.542 409H-383V136.934Z" fill="#F3F3F3"/>
</svg>
