<svg width="727" height="895" viewBox="0 0 727 895" fill="none" xmlns="http://www.w3.org/2000/svg">
<path fill-rule="evenodd" clip-rule="evenodd" d="M463.077 0.552248C574.721 -18.0335 679.169 -136.951 781.874 -89.3604C883.812 -42.1259 868.573 109.067 916.565 210.684C963.189 309.404 1061.96 387.699 1058.72 496.83C1055.33 611.015 986.176 716.492 899.33 790.653C815.85 861.94 704.392 886.398 594.826 892.97C492.846 899.087 381.921 891.708 303.326 826.401C229.799 765.305 249.905 648.152 201.188 565.883C145.841 472.42 13.8527 425.968 2.24373 317.963C-9.87408 205.223 48.8555 81.4239 142.205 17.1272C232.627 -45.1534 354.781 18.5806 463.077 0.552248Z" fill="#E9F5D6"/>
</svg>
